<svg width="420" height="436" viewBox="0 0 420 436" fill="none" xmlns="http://www.w3.org/2000/svg">
<path d="M0.999969 307.097C100.164 290.969 298.492 273.228 298.492 331.289C298.492 389.351 206.584 422.164 160.63 431.313M298.492 1C286.399 5.31404 260.762 25.6114 254.957 72.2885C247.701 130.635 224.41 150.558 205.541 150.558C190.091 157.199 137.774 165.073 126.164 132.058C111.653 90.7886 81.376 68.0192 47.5369 75.1347M352.912 16.7893C349.284 15.5847 291.236 46.673 285.794 117.827C280.353 188.981 222.305 322.751 102.583 251.597C57.2303 216.019 13.5327 193.725 6.19431 196.097M140.676 430.883C157.002 418.557 185.3 389.92 167.886 373.982C150.472 358.043 55.2194 379.674 9.76996 392.482M419.664 82.2501C380.483 101.224 308.288 161.658 332.958 251.597C354.726 302.828 394.504 297.61 411.672 288.597M405.109 358.328C381.663 358.57 336.949 374.352 345.656 435.538" stroke="white" stroke-width="0.970341"/>
</svg>
